<?xml version="1.0" encoding="utf-8"?>
<!-- Generator: Adobe Illustrator 24.3.0, SVG Export Plug-In . SVG Version: 6.00 Build 0)  -->
<svg version="1.1" id="Layer_1" xmlns="http://www.w3.org/2000/svg" xmlns:xlink="http://www.w3.org/1999/xlink" x="0px" y="0px"
	 viewBox="0 0 514.52 220.31" style="enable-background:new 0 0 514.52 220.31;" xml:space="preserve">
<style type="text/css">
	.st0{fill:url(#SVGID_1_);}
	.st1{fill:url(#SVGID_2_);}
	.st2{fill:url(#SVGID_3_);}
	.st3{fill:url(#SVGID_4_);}
	.st4{fill:url(#SVGID_5_);}
	.st5{fill:url(#SVGID_6_);}
	.st6{fill:url(#SVGID_7_);}
	.st7{fill:url(#SVGID_8_);}
	.st8{fill:url(#SVGID_9_);}
	.st9{fill:url(#SVGID_10_);}
	.st10{fill:url(#SVGID_11_);}
	.st11{fill:url(#SVGID_12_);}
	.st12{fill:url(#SVGID_13_);}
	.st13{fill:url(#SVGID_14_);}
	.st14{fill:url(#SVGID_15_);}
	.st15{fill:url(#SVGID_16_);}
	.st16{fill:url(#SVGID_17_);}
	.st17{fill:url(#SVGID_18_);}
	.st18{fill:url(#SVGID_19_);}
	.st19{fill:url(#SVGID_20_);}
	.st20{fill:url(#SVGID_21_);}
	.st21{fill:url(#SVGID_22_);}
	.st22{fill:url(#SVGID_23_);}
	.st23{fill:url(#SVGID_24_);}
	.st24{fill:url(#SVGID_25_);}
	.st25{fill:url(#SVGID_26_);}
	.st26{fill:url(#SVGID_27_);}
	.st27{fill:url(#SVGID_28_);}
</style>
<g>
	<g>
		<g>
			<linearGradient id="SVGID_1_" gradientUnits="userSpaceOnUse" x1="163.0745" y1="89.8166" x2="163.0745" y2="147.2303">
				<stop  offset="0" style="stop-color:#054582"/>
				<stop  offset="1" style="stop-color:#00011A"/>
			</linearGradient>
			<path class="st0" d="M203.7,148.47c-1.35-1.17-2.19-2.81-2.52-4.92h-0.04l-8.16-67.85h-0.89l-28.69,57l-29.53-57h-0.99
				l-7.9,67.85h-0.01c-0.26,2.12-1.09,3.76-2.47,4.92c-1.38,1.16-2.97,1.75-4.75,1.75c-0.99,0-1.52,0-1.58,0v1.06h7.91h3.06h3.16
				h0.1h5.93v-0.95h-1.48c-1.05,0-1.96-0.48-2.72-1.43c-0.76-0.95-1.14-1.99-1.14-3.12c0-0.14,0-0.25,0-0.32c0-0.07,0-0.14,0-0.21
				h-0.01l4.06-41.91l25.31,49.84h0.99c0.07-1.62,0.39-3.31,0.99-5.08c0.59-1.76,1.48-3.88,2.67-6.35l19.3-38.78l4.04,42.27h-0.02
				c0,0.07,0,0.14,0,0.21c0,0.07,0,0.18,0,0.32c0,1.13-0.36,2.17-1.09,3.12c-0.73,0.95-1.65,1.43-2.77,1.43h-1.48v0.95h5.93h0.1H199
				h3.06h7.91v-1.06c-0.07,0-0.59,0-1.58,0C206.62,150.22,205.05,149.64,203.7,148.47z"/>
		</g>
		<g>
			<linearGradient id="SVGID_2_" gradientUnits="userSpaceOnUse" x1="250.3797" y1="89.8166" x2="250.3797" y2="147.2303">
				<stop  offset="0" style="stop-color:#054582"/>
				<stop  offset="1" style="stop-color:#00011A"/>
			</linearGradient>
			<path class="st1" d="M276.76,148.25c-1.31-0.86-2.38-2.28-3.21-4.25h0l-23.21-53.06h-0.8c-0.06,0.64-0.28,1.51-0.67,2.63
				c-0.39,1.11-0.82,2.28-1.3,3.49c-0.48,1.21-0.91,2.26-1.29,3.16c-0.39,0.89-0.61,1.47-0.67,1.72l-18.28,42.06h-0.02
				c-0.83,1.98-1.91,3.39-3.21,4.25c-1.31,0.86-2.59,1.29-3.84,1.29h-0.71v0.96h17.59v-0.96h-0.71c-1.01,0-1.94-0.48-2.77-1.43
				c-0.83-0.96-0.92-2.33-0.27-4.11h-0.02l3.97-9.94h20.19l3.89,9.95c0.65,1.78,0.56,3.15-0.27,4.11c-0.83,0.96-1.76,1.43-2.77,1.43
				h-0.71v0.96h23.57v-0.96h-0.71C279.32,149.54,278.07,149.11,276.76,148.25z M238.7,130.61l8.82-22.09l8.65,22.09H238.7z"/>
		</g>
		<g>
			<linearGradient id="SVGID_3_" gradientUnits="userSpaceOnUse" x1="314.1648" y1="89.8166" x2="314.1648" y2="147.2303">
				<stop  offset="0" style="stop-color:#054582"/>
				<stop  offset="1" style="stop-color:#00011A"/>
			</linearGradient>
			<path class="st2" d="M340.54,148.25c-1.31-0.86-2.38-2.28-3.21-4.25h0l-23.21-53.06h-0.8c-0.06,0.64-0.28,1.51-0.67,2.63
				c-0.39,1.11-0.82,2.28-1.3,3.49c-0.48,1.21-0.91,2.26-1.29,3.16c-0.39,0.89-0.61,1.47-0.67,1.72l-18.28,42.06h-0.02
				c-0.83,1.98-1.91,3.39-3.21,4.25c-1.31,0.86-2.59,1.29-3.84,1.29h-0.71v0.96h17.59v-0.96h-0.71c-1.01,0-1.94-0.48-2.77-1.43
				c-0.83-0.96-0.92-2.33-0.27-4.11h-0.02l3.97-9.94h20.19l3.89,9.95c0.65,1.78,0.56,3.15-0.27,4.11c-0.83,0.96-1.76,1.43-2.77,1.43
				h-0.71v0.96h23.57v-0.96h-0.71C343.1,149.54,341.85,149.11,340.54,148.25z M302.48,130.61l8.82-22.09l8.65,22.09H302.48z"/>
		</g>
		<g>
			<linearGradient id="SVGID_4_" gradientUnits="userSpaceOnUse" x1="382.874" y1="89.8166" x2="382.874" y2="147.2303">
				<stop  offset="0" style="stop-color:#054582"/>
				<stop  offset="1" style="stop-color:#00011A"/>
			</linearGradient>
			<path class="st3" d="M408.67,93.13h-9.02h-0.18h-6.43v0.96h1.52c1.31,0,2.44,0.46,3.39,1.39c0.95,0.92,1.46,2.09,1.52,3.49v34.01
				L356.72,91.8h-0.89c0.59,4.21,0.89,7.93,0.89,11.19v41.68c0,1.4-0.48,2.57-1.43,3.49c-0.95,0.92-2.11,1.39-3.48,1.39h-1.43v0.96
				h6.34h0.27H366h0.18h6.43v-0.96h-1.52c-1.25,0-2.37-0.46-3.35-1.39c-0.98-0.92-1.5-2.09-1.56-3.49v-34.27l42.85,41.35h0.8
				c-0.3-2.04-0.52-3.92-0.67-5.64c-0.15-1.72-0.22-3.66-0.22-5.83v-41.3c0-1.4,0.49-2.56,1.47-3.49c0.98-0.92,2.13-1.39,3.44-1.39
				h1.52v-0.96h-6.43H408.67z"/>
		</g>
		<g>
			<linearGradient id="SVGID_5_" gradientUnits="userSpaceOnUse" x1="453.3327" y1="89.8166" x2="453.3327" y2="147.2303">
				<stop  offset="0" style="stop-color:#054582"/>
				<stop  offset="1" style="stop-color:#00011A"/>
			</linearGradient>
			<path class="st4" d="M466.46,94.09h0.62c1.07,0,2.01,0.48,2.81,1.44c0.8,0.96,0.88,2.36,0.22,4.21h0.04l-13.97,34.52
				l-13.73-34.86c-0.47-1.67-0.34-2.97,0.44-3.87c0.83-0.96,1.72-1.44,2.68-1.44h0.71v-0.96h-23.57v0.96h0.71
				c1.19,0,2.42,0.43,3.71,1.29c1.23,0.83,2.29,2.23,3.16,4.16l23.13,52.2h0.71c0.12-0.7,0.36-1.61,0.71-2.72
				c0.36-1.11,0.77-2.26,1.25-3.44c0.47-1.18,0.91-2.23,1.29-3.15c0.39-0.92,0.64-1.48,0.76-1.67l18.03-41.01h0.01
				c0.89-2.04,1.99-3.49,3.3-4.35c1.31-0.86,2.56-1.29,3.75-1.29h0.71v-0.96h-17.5V94.09z"/>
		</g>
		<g>
			<linearGradient id="SVGID_6_" gradientUnits="userSpaceOnUse" x1="502.6332" y1="89.8166" x2="502.6332" y2="147.1774">
				<stop  offset="0" style="stop-color:#054582"/>
				<stop  offset="1" style="stop-color:#00011A"/>
			</linearGradient>
			<path class="st5" d="M509.51,148.06c-1.04-0.99-1.59-2.18-1.65-3.59V99.16c0.06-1.46,0.61-2.68,1.65-3.63
				c1.04-0.96,2.34-1.44,3.88-1.44h0.98l0.09-0.96h-6.61h-0.27h-9.91h-0.27h-6.61v0.96c0.71,0,1.1,0,1.16,0
				c1.49,0,2.77,0.48,3.84,1.44c1.07,0.96,1.61,2.17,1.61,3.63v45.31c0,1.4-0.54,2.6-1.61,3.59c-1.07,0.99-2.35,1.48-3.84,1.48
				h-1.16v0.96h6.61h0.27h9.91h0.27h6.61v-0.96c-0.06,0-0.42,0-1.07,0C511.84,149.54,510.55,149.04,509.51,148.06z"/>
		</g>
	</g>
	<g>
		<linearGradient id="SVGID_7_" gradientUnits="userSpaceOnUse" x1="126.5692" y1="158.0225" x2="126.5692" y2="178.1525">
			<stop  offset="0" style="stop-color:#00004A"/>
			<stop  offset="1" style="stop-color:#CD013E"/>
		</linearGradient>
		<path class="st6" d="M116.63,165.02c0.21,0.07,0.54,0.15,0.98,0.25c0.44,0.09,0.92,0.17,1.46,0.23c0.53,0.06,1.02,0.09,1.47,0.09
			l-3.9,0.35V165.02z M136.51,165.59v1.17h-19.87v-1.17H136.51z M119.29,166.69v0.07c-0.71,0.02-1.27,0.25-1.67,0.67
			c-0.4,0.42-0.6,0.98-0.6,1.67v0.46h-0.39v-2.88H119.29z M125.01,184.64v2.27h-2.52v-0.35c0.02,0,0.17,0,0.42,0
			c0.54,0,1.01-0.19,1.4-0.57c0.39-0.38,0.6-0.83,0.62-1.35H125.01z M128.2,165.73v21.19h-3.26v-21.19H128.2z M128.1,184.64h0.11
			c0,0.52,0.2,0.97,0.6,1.35c0.4,0.38,0.88,0.57,1.42,0.57h0.39v0.35h-2.52V184.64z M136.51,165.02v0.92l-3.9-0.35
			c0.45,0,0.94-0.03,1.47-0.09c0.53-0.06,1.02-0.14,1.45-0.23C135.97,165.17,136.29,165.09,136.51,165.02z M136.51,166.69v2.88
			h-0.39v-0.46c0-0.68-0.2-1.24-0.6-1.67c-0.4-0.43-0.96-0.65-1.67-0.67v-0.07H136.51z"/>
		<linearGradient id="SVGID_8_" gradientUnits="userSpaceOnUse" x1="159.2714" y1="158.0225" x2="159.2714" y2="178.1525">
			<stop  offset="0" style="stop-color:#00004A"/>
			<stop  offset="1" style="stop-color:#CD013E"/>
		</linearGradient>
		<path class="st7" d="M153.36,167.86h-0.07c-0.02-0.54-0.22-0.99-0.59-1.35c-0.37-0.35-0.83-0.53-1.4-0.53c-0.02,0-0.19,0-0.5,0
			v-0.35h2.95L153.36,167.86z M153.36,184.64l0.39,2.27h-2.95v-0.35c0.31,0,0.47,0,0.5,0c0.57,0,1.04-0.19,1.4-0.57
			c0.37-0.38,0.56-0.83,0.59-1.35H153.36z M156.52,165.62v21.29h-3.23v-21.29H156.52z M165.75,165.62v1.21h-9.3v-1.21H165.75z
			 M164.15,175.7v1.21h-7.7v-1.21H164.15z M165.64,185.71l0.25,1.21h-9.44v-1.21H165.64z M167.74,181.34l-1.74,5.57h-5.64l1.17-1.21
			c1.11,0,2.04-0.18,2.78-0.55c0.75-0.37,1.37-0.88,1.86-1.54c0.5-0.66,0.9-1.42,1.21-2.27H167.74z M165.75,165.05v0.92l-3.94-0.35
			c0.73,0,1.5-0.06,2.31-0.19C164.92,165.3,165.46,165.17,165.75,165.05z M164.15,173.39v2.38h-2.27v-0.07
			c0.61,0,1.08-0.19,1.4-0.57c0.32-0.38,0.48-0.83,0.48-1.35v-0.39H164.15z M164.15,176.84v2.38h-0.39v-0.39
			c0-0.54-0.16-1-0.48-1.37c-0.32-0.37-0.79-0.55-1.4-0.55v-0.07H164.15z M165.75,166.72v2.91h-0.35v-0.46c0-0.69-0.2-1.25-0.6-1.69
			c-0.4-0.44-0.96-0.66-1.67-0.66v-0.11H165.75z"/>
		<linearGradient id="SVGID_9_" gradientUnits="userSpaceOnUse" x1="193.3217" y1="158.0225" x2="193.3217" y2="178.1525">
			<stop  offset="0" style="stop-color:#00004A"/>
			<stop  offset="1" style="stop-color:#CD013E"/>
		</linearGradient>
		<path class="st8" d="M204.15,177.97l-0.11,5.04c-0.57,0.88-1.32,1.65-2.25,2.31c-0.94,0.66-2.01,1.18-3.23,1.54
			c-1.22,0.37-2.55,0.55-3.99,0.55c-2.48-0.02-4.63-0.49-6.44-1.38s-3.2-2.17-4.17-3.82c-0.97-1.64-1.45-3.62-1.45-5.94
			c0-2.32,0.48-4.31,1.45-5.96c0.97-1.65,2.36-2.93,4.17-3.83c1.81-0.9,3.96-1.35,6.44-1.35c1.51,0,3,0.18,4.45,0.53
			c1.45,0.35,2.7,0.84,3.74,1.46l0.53,5.22h-0.32c-0.54-2.18-1.56-3.73-3.03-4.65c-1.48-0.92-3.23-1.38-5.27-1.38
			c-1.82,0-3.38,0.41-4.67,1.23c-1.29,0.82-2.28,1.96-2.98,3.44c-0.7,1.48-1.05,3.23-1.05,5.27c0,2.01,0.35,3.76,1.05,5.25
			c0.7,1.49,1.69,2.64,2.96,3.44c1.28,0.8,2.8,1.23,4.58,1.28c1.75,0,3.28-0.28,4.6-0.85c1.31-0.57,2.38-1.46,3.19-2.66
			c0.82-1.21,1.32-2.78,1.51-4.72H204.15z"/>
		<linearGradient id="SVGID_10_" gradientUnits="userSpaceOnUse" x1="231.0257" y1="158.0225" x2="231.0257" y2="178.1525">
			<stop  offset="0" style="stop-color:#00004A"/>
			<stop  offset="1" style="stop-color:#CD013E"/>
		</linearGradient>
		<path class="st9" d="M222,167.89h-0.11c-0.02-0.54-0.23-1-0.62-1.37c-0.39-0.37-0.86-0.55-1.4-0.55h-0.43v-0.35H222V167.89z
			 M222,184.64v2.27h-2.56v-0.35h0.43c0.54,0,1.01-0.19,1.4-0.57c0.39-0.38,0.6-0.83,0.62-1.35H222z M225.08,165.62v21.29h-3.19
			v-21.29H225.08z M237.29,175.77v1.21h-12.56v-1.21H237.29z M225.01,167.89v-2.27h2.52v0.35h-0.43c-0.54,0-1.01,0.18-1.4,0.55
			c-0.39,0.37-0.6,0.82-0.62,1.37H225.01z M225.01,184.64h0.07c0.02,0.52,0.23,0.97,0.62,1.35c0.39,0.38,0.86,0.57,1.4,0.57h0.43
			v0.35h-2.52V184.64z M237.04,167.89h-0.11c-0.02-0.54-0.23-1-0.6-1.37c-0.38-0.37-0.85-0.55-1.42-0.55h-0.39v-0.35h2.52V167.89z
			 M237.04,184.64v2.27h-2.52v-0.35h0.39c0.57,0,1.04-0.19,1.42-0.57c0.38-0.38,0.58-0.83,0.6-1.35H237.04z M240.16,165.62v21.29
			h-3.23v-21.29H240.16z M240.06,167.89v-2.27h2.55v0.35h-0.42c-0.57,0-1.04,0.18-1.42,0.55c-0.38,0.37-0.58,0.82-0.6,1.37H240.06z
			 M240.06,184.64h0.11c0.02,0.52,0.23,0.97,0.6,1.35c0.38,0.38,0.85,0.57,1.42,0.57h0.39v0.35h-2.52V184.64z"/>
		<linearGradient id="SVGID_11_" gradientUnits="userSpaceOnUse" x1="270.1681" y1="158.0225" x2="270.1681" y2="178.1525">
			<stop  offset="0" style="stop-color:#00004A"/>
			<stop  offset="1" style="stop-color:#CD013E"/>
		</linearGradient>
		<path class="st10" d="M260.07,184.71v2.2h-2.66v-0.35h0.6c0.54,0,1.01-0.18,1.38-0.53c0.38-0.35,0.57-0.79,0.57-1.31H260.07z
			 M259.97,165.09l2.66,3.12l0.04,18.7h-2.7v-17.5c0-1.21-0.11-2.65-0.32-4.33H259.97z M259.97,165.09l20.05,18.45l0.35,3.87
			l-20.01-18.53L259.97,165.09z M262.66,184.71c0,0.52,0.19,0.96,0.59,1.31s0.85,0.53,1.37,0.53h0.6v0.35h-2.66v-2.2H262.66z
			 M277.71,167.82c-0.02-0.52-0.22-0.96-0.6-1.31c-0.38-0.35-0.84-0.53-1.38-0.53h-0.6v-0.35h2.66v2.2H277.71z M280.37,165.62v17.35
			c0,0.78,0.02,1.51,0.07,2.18c0.05,0.67,0.13,1.42,0.25,2.25h-0.32l-2.66-3.16v-18.63H280.37z M280.27,167.82v-2.2h2.66v0.35h-0.6
			c-0.52,0-0.98,0.18-1.37,0.53c-0.39,0.35-0.59,0.79-0.59,1.31H280.27z"/>
		<linearGradient id="SVGID_12_" gradientUnits="userSpaceOnUse" x1="309.6125" y1="158.0225" x2="309.6125" y2="178.1525">
			<stop  offset="0" style="stop-color:#00004A"/>
			<stop  offset="1" style="stop-color:#CD013E"/>
		</linearGradient>
		<path class="st11" d="M309.58,165.12c1.75,0,3.37,0.27,4.84,0.8c1.48,0.53,2.77,1.29,3.87,2.27c1.1,0.98,1.96,2.15,2.57,3.51
			c0.61,1.36,0.92,2.88,0.92,4.56c0,1.68-0.31,3.2-0.92,4.56c-0.61,1.36-1.47,2.53-2.57,3.51c-1.1,0.98-2.39,1.74-3.87,2.27
			c-1.48,0.53-3.09,0.8-4.84,0.8c-1.73,0-3.32-0.27-4.79-0.8c-1.47-0.53-2.76-1.29-3.87-2.27c-1.11-0.98-1.97-2.15-2.57-3.51
			c-0.6-1.36-0.9-2.88-0.9-4.56c0-1.68,0.3-3.2,0.9-4.56c0.6-1.36,1.46-2.53,2.57-3.51c1.11-0.98,2.4-1.74,3.87-2.27
			C306.25,165.39,307.85,165.12,309.58,165.12z M309.58,186.24c1.66,0,3.14-0.42,4.44-1.26c1.3-0.84,2.32-2.01,3.07-3.5
			c0.74-1.49,1.12-3.23,1.12-5.22c0-2.01-0.37-3.75-1.12-5.23c-0.75-1.48-1.77-2.64-3.07-3.48c-1.3-0.84-2.78-1.26-4.44-1.26
			c-1.61,0-3.06,0.42-4.37,1.26c-1.3,0.84-2.33,2-3.09,3.48c-0.76,1.48-1.14,3.22-1.14,5.23c0,1.99,0.38,3.73,1.14,5.22
			c0.76,1.49,1.79,2.66,3.09,3.5C306.51,185.82,307.97,186.24,309.58,186.24z"/>
		<linearGradient id="SVGID_13_" gradientUnits="userSpaceOnUse" x1="345.0825" y1="158.0225" x2="345.0825" y2="178.1525">
			<stop  offset="0" style="stop-color:#00004A"/>
			<stop  offset="1" style="stop-color:#CD013E"/>
		</linearGradient>
		<path class="st12" d="M339.17,167.89h-0.07c-0.02-0.54-0.23-1-0.62-1.37c-0.39-0.37-0.87-0.55-1.44-0.55h-0.43v-0.35h2.56V167.89z
			 M339.17,184.64l0.39,2.27h-2.95v-0.35c0.31,0,0.47,0,0.5,0c0.57,0,1.04-0.19,1.4-0.57c0.37-0.38,0.56-0.83,0.59-1.35H339.17z
			 M342.33,165.62v21.29h-3.23v-21.29H342.33z M342.23,167.89v-2.27h2.59v0.35c-0.02,0-0.17,0-0.42,0c-0.57,0-1.05,0.18-1.46,0.55
			c-0.4,0.37-0.6,0.82-0.6,1.37H342.23z M351.45,185.71l0.25,1.21h-9.44v-1.21H351.45z M353.55,181.34l-1.74,5.57h-5.64l1.17-1.21
			c1.11,0,2.04-0.18,2.79-0.55c0.75-0.37,1.37-0.88,1.86-1.54c0.5-0.66,0.9-1.42,1.21-2.27H353.55z"/>
		<linearGradient id="SVGID_14_" gradientUnits="userSpaceOnUse" x1="379.9143" y1="158.0225" x2="379.9143" y2="178.1525">
			<stop  offset="0" style="stop-color:#00004A"/>
			<stop  offset="1" style="stop-color:#CD013E"/>
		</linearGradient>
		<path class="st13" d="M379.88,165.12c1.75,0,3.37,0.27,4.84,0.8c1.48,0.53,2.77,1.29,3.87,2.27c1.1,0.98,1.96,2.15,2.57,3.51
			s0.92,2.88,0.92,4.56c0,1.68-0.31,3.2-0.92,4.56c-0.61,1.36-1.47,2.53-2.57,3.51c-1.1,0.98-2.39,1.74-3.87,2.27
			c-1.48,0.53-3.09,0.8-4.84,0.8c-1.73,0-3.32-0.27-4.79-0.8c-1.47-0.53-2.76-1.29-3.87-2.27c-1.11-0.98-1.97-2.15-2.57-3.51
			c-0.6-1.36-0.9-2.88-0.9-4.56c0-1.68,0.3-3.2,0.9-4.56c0.6-1.36,1.46-2.53,2.57-3.51c1.11-0.98,2.4-1.74,3.87-2.27
			C376.55,165.39,378.15,165.12,379.88,165.12z M379.88,186.24c1.66,0,3.14-0.42,4.44-1.26c1.3-0.84,2.32-2.01,3.07-3.5
			c0.74-1.49,1.12-3.23,1.12-5.22c0-2.01-0.37-3.75-1.12-5.23c-0.75-1.48-1.77-2.64-3.07-3.48c-1.3-0.84-2.78-1.26-4.44-1.26
			c-1.61,0-3.06,0.42-4.37,1.26c-1.3,0.84-2.33,2-3.09,3.48c-0.76,1.48-1.14,3.22-1.14,5.23c0,1.99,0.38,3.73,1.14,5.22
			c0.76,1.49,1.79,2.66,3.09,3.5C376.81,185.82,378.27,186.24,379.88,186.24z"/>
		<linearGradient id="SVGID_15_" gradientUnits="userSpaceOnUse" x1="419.4474" y1="158.0225" x2="419.4474" y2="178.1525">
			<stop  offset="0" style="stop-color:#00004A"/>
			<stop  offset="1" style="stop-color:#CD013E"/>
		</linearGradient>
		<path class="st14" d="M419.16,165.12c1.09,0,2.13,0.08,3.14,0.23c1.01,0.15,1.96,0.38,2.86,0.67c0.9,0.3,1.72,0.66,2.45,1.08
			l0.53,5.22h-0.32c-0.33-1.42-0.87-2.57-1.61-3.46c-0.75-0.89-1.68-1.54-2.79-1.95c-1.11-0.41-2.41-0.62-3.9-0.62
			c-1.75,0-3.27,0.4-4.56,1.21c-1.29,0.8-2.28,1.96-2.98,3.46s-1.05,3.3-1.05,5.38c0,2.01,0.34,3.76,1.03,5.25
			c0.69,1.49,1.66,2.64,2.91,3.44c1.25,0.8,2.72,1.21,4.4,1.21c0.9,0,1.76-0.11,2.59-0.34c0.83-0.22,1.61-0.57,2.34-1.05
			c0.73-0.47,1.38-1.06,1.95-1.77l0.04-4.58c0.02-0.45-0.11-0.79-0.41-1.03c-0.3-0.24-0.69-0.35-1.19-0.35h-0.5v-0.35h7.35v0.35
			h-0.46c-1.06,0-1.6,0.47-1.6,1.42v4.4c-0.52,0.69-1.27,1.37-2.25,2.06c-0.98,0.69-2.15,1.26-3.49,1.72
			c-1.35,0.46-2.86,0.69-4.54,0.69c-2.34-0.02-4.38-0.49-6.12-1.38s-3.09-2.18-4.06-3.83c-0.97-1.66-1.45-3.63-1.45-5.93
			c0-2.32,0.48-4.31,1.45-5.96c0.97-1.65,2.33-2.93,4.08-3.83C414.74,165.57,416.8,165.12,419.16,165.12z"/>
		<linearGradient id="SVGID_16_" gradientUnits="userSpaceOnUse" x1="449.6106" y1="158.0225" x2="449.6106" y2="178.1525">
			<stop  offset="0" style="stop-color:#00004A"/>
			<stop  offset="1" style="stop-color:#CD013E"/>
		</linearGradient>
		<path class="st15" d="M448.12,167.89h-0.11c-0.02-0.54-0.25-1-0.69-1.37c-0.44-0.37-0.98-0.55-1.61-0.55h-0.46v-0.35h2.88V167.89z
			 M448.12,184.64v2.27h-2.88v-0.35c0.31,0,0.47,0,0.5,0c0.61,0,1.14-0.19,1.58-0.57c0.44-0.38,0.67-0.83,0.69-1.35H448.12z
			 M451.21,165.62v21.29h-3.19v-21.29H451.21z M451.1,167.89v-2.27h2.87l-0.04,0.35h-0.42c-0.64,0-1.18,0.18-1.61,0.55
			c-0.44,0.37-0.67,0.82-0.69,1.37H451.1z M451.1,184.64h0.11c0.02,0.52,0.25,0.97,0.69,1.35c0.44,0.38,0.97,0.57,1.61,0.57h0.42
			l0.04,0.35h-2.87V184.64z"/>
		<linearGradient id="SVGID_17_" gradientUnits="userSpaceOnUse" x1="477.806" y1="158.0225" x2="477.806" y2="178.1525">
			<stop  offset="0" style="stop-color:#00004A"/>
			<stop  offset="1" style="stop-color:#CD013E"/>
		</linearGradient>
		<path class="st16" d="M471.9,167.86h-0.07c-0.02-0.54-0.22-0.99-0.59-1.35c-0.37-0.35-0.83-0.53-1.4-0.53c-0.02,0-0.19,0-0.5,0
			v-0.35h2.95L471.9,167.86z M471.9,184.64l0.39,2.27h-2.95v-0.35c0.31,0,0.47,0,0.5,0c0.57,0,1.04-0.19,1.4-0.57
			c0.37-0.38,0.56-0.83,0.59-1.35H471.9z M475.06,165.62v21.29h-3.23v-21.29H475.06z M484.28,165.62v1.21h-9.3v-1.21H484.28z
			 M482.69,175.7v1.21h-7.7v-1.21H482.69z M484.18,185.71l0.25,1.21h-9.44v-1.21H484.18z M486.27,181.34l-1.74,5.57h-5.64l1.17-1.21
			c1.11,0,2.04-0.18,2.78-0.55c0.75-0.37,1.37-0.88,1.86-1.54c0.5-0.66,0.9-1.42,1.21-2.27H486.27z M484.28,165.05v0.92l-3.94-0.35
			c0.73,0,1.5-0.06,2.31-0.19C483.45,165.3,484,165.17,484.28,165.05z M482.69,173.39v2.38h-2.27v-0.07c0.61,0,1.08-0.19,1.4-0.57
			s0.48-0.83,0.48-1.35v-0.39H482.69z M482.69,176.84v2.38h-0.39v-0.39c0-0.54-0.16-1-0.48-1.37c-0.32-0.37-0.79-0.55-1.4-0.55
			v-0.07H482.69z M484.28,166.72v2.91h-0.35v-0.46c0-0.69-0.2-1.25-0.6-1.69c-0.4-0.44-0.96-0.66-1.67-0.66v-0.11H484.28z"/>
		<linearGradient id="SVGID_18_" gradientUnits="userSpaceOnUse" x1="507.8294" y1="158.0225" x2="507.8294" y2="178.1525">
			<stop  offset="0" style="stop-color:#00004A"/>
			<stop  offset="1" style="stop-color:#CD013E"/>
		</linearGradient>
		<path class="st17" d="M507.63,165.12c0.61,0,1.2,0.02,1.76,0.07c0.55,0.05,1.06,0.1,1.53,0.16c0.46,0.06,0.87,0.13,1.22,0.21
			c0.35,0.08,0.63,0.16,0.82,0.23l-0.11,3.8h-0.39c0-1.02-0.35-1.82-1.05-2.39c-0.7-0.58-1.75-0.87-3.14-0.87
			c-1.18,0-2.17,0.3-2.96,0.9c-0.79,0.6-1.19,1.36-1.19,2.25c0,0.35,0.06,0.69,0.18,1.01c0.12,0.32,0.31,0.63,0.57,0.92
			c0.26,0.3,0.58,0.59,0.96,0.87l6.63,4.86c0.69,0.45,1.21,1.06,1.56,1.83c0.35,0.77,0.52,1.59,0.5,2.47c0,1.14-0.31,2.16-0.92,3.07
			s-1.44,1.62-2.48,2.13s-2.22,0.76-3.55,0.76c-0.8,0-1.62-0.07-2.43-0.21c-0.82-0.14-1.56-0.34-2.22-0.6
			c-0.66-0.26-1.21-0.57-1.63-0.92c-0.09-0.38-0.14-0.85-0.14-1.42c0-0.57,0.06-1.15,0.18-1.76c0.12-0.6,0.27-1.13,0.46-1.58h0.39
			c-0.09,1.06,0.07,2,0.5,2.8c0.42,0.8,1.05,1.43,1.86,1.86c0.82,0.44,1.78,0.64,2.89,0.62c1.44-0.02,2.56-0.37,3.35-1.05
			c0.79-0.68,1.19-1.54,1.19-2.61c0-0.59-0.14-1.12-0.41-1.6c-0.27-0.47-0.72-0.93-1.33-1.38l-6.42-4.68
			c-0.83-0.59-1.41-1.28-1.76-2.08c-0.34-0.79-0.49-1.6-0.44-2.43c0.05-1.02,0.34-1.92,0.87-2.71s1.25-1.41,2.15-1.86
			C505.52,165.35,506.52,165.12,507.63,165.12z M512.96,165.44v0.64h-2.95v-0.64H512.96z"/>
	</g>
	<g>
		<g>
			<linearGradient id="SVGID_19_" gradientUnits="userSpaceOnUse" x1="16.0665" y1="5.0813" x2="16.7937" y2="131.3741">
				<stop  offset="0" style="stop-color:#EEEBE9"/>
				<stop  offset="0" style="stop-color:#E7E3E0"/>
				<stop  offset="0.0375" style="stop-color:#D8D5D3"/>
				<stop  offset="0.1095" style="stop-color:#B1B1AF"/>
				<stop  offset="0.2078" style="stop-color:#737777"/>
				<stop  offset="0.264" style="stop-color:#4C5354"/>
				<stop  offset="0.2677" style="stop-color:#4E5556"/>
				<stop  offset="0.3751" style="stop-color:#909495"/>
				<stop  offset="0.4654" style="stop-color:#C0C2C3"/>
				<stop  offset="0.5341" style="stop-color:#DEDEDF"/>
				<stop  offset="0.573" style="stop-color:#E9E9EA"/>
				<stop  offset="0.6348" style="stop-color:#DFE0E1"/>
				<stop  offset="0.7388" style="stop-color:#C5C7CA"/>
				<stop  offset="0.8715" style="stop-color:#9BA0A5"/>
				<stop  offset="0.8764" style="stop-color:#999EA3"/>
				<stop  offset="1" style="stop-color:#DADADA"/>
				<stop  offset="1" style="stop-color:#B2B2B2"/>
			</linearGradient>
			<path class="st18" d="M32.29,144.34c0,0-3.38-0.75-7.8-3.26c-11.36-18.3,2.52-63.03,3.63-99.29
				C29.94,21.74,16.26,10.68,6.18,5.32C4.36,3.52,2.28,1.85,0,0c0.01,0.01,0.01,0.01,0.02,0.01c0.02,0.01,0.03,0.02,0.05,0.02
				C1.7,0.47,34.88,10.16,32.13,40.7c-1.21,39.53-17.59,89.12,0.07,103.57c0.03,0.02,0.04,0.04,0.06,0.05
				c0.01,0.01,0.02,0.01,0.02,0.02C32.28,144.34,32.29,144.34,32.29,144.34L32.29,144.34z"/>
			<linearGradient id="SVGID_20_" gradientUnits="userSpaceOnUse" x1="13.3951" y1="1.5878" x2="36.1811" y2="195.2691">
				<stop  offset="0" style="stop-color:#054582"/>
				<stop  offset="1" style="stop-color:#00011A"/>
			</linearGradient>
			<path class="st19" d="M28.13,41.79c-0.38,12.47-2.28,25.95-4.14,39L9.79,62.99c7.16-39.5,4.21-49.91-3.6-57.66
				C16.26,10.68,29.94,21.74,28.13,41.79z"/>
		</g>
		<linearGradient id="SVGID_21_" gradientUnits="userSpaceOnUse" x1="37.4583" y1="41.3595" x2="37.465" y2="42.5168">
			<stop  offset="0" style="stop-color:#EEEBE9"/>
			<stop  offset="0" style="stop-color:#E7E3E0"/>
			<stop  offset="0.0375" style="stop-color:#D8D5D3"/>
			<stop  offset="0.1095" style="stop-color:#B1B1AF"/>
			<stop  offset="0.2078" style="stop-color:#737777"/>
			<stop  offset="0.264" style="stop-color:#4C5354"/>
			<stop  offset="0.2677" style="stop-color:#4E5556"/>
			<stop  offset="0.3751" style="stop-color:#909495"/>
			<stop  offset="0.4654" style="stop-color:#C0C2C3"/>
			<stop  offset="0.5341" style="stop-color:#DEDEDF"/>
			<stop  offset="0.573" style="stop-color:#E9E9EA"/>
			<stop  offset="0.6348" style="stop-color:#DFE0E1"/>
			<stop  offset="0.7388" style="stop-color:#C5C7CA"/>
			<stop  offset="0.8715" style="stop-color:#9BA0A5"/>
			<stop  offset="0.8764" style="stop-color:#999EA3"/>
			<stop  offset="1" style="stop-color:#DADADA"/>
			<stop  offset="1" style="stop-color:#B2B2B2"/>
		</linearGradient>
		<path class="st20" d="M36.73,41.32c0.5,0.43,0.99,0.87,1.46,1.32C37.72,42.19,37.23,41.75,36.73,41.32z"/>
		<linearGradient id="SVGID_22_" gradientUnits="userSpaceOnUse" x1="67.8293" y1="-4.8162" x2="90.6153" y2="188.8651">
			<stop  offset="0" style="stop-color:#054582"/>
			<stop  offset="1" style="stop-color:#00011A"/>
		</linearGradient>
		<path class="st21" d="M92.97,117.82c-0.43,13.91-2.74,29.07-4.77,43.51l-14.52-18.22c3.37-17.81,4.84-30.11,4.84-39
			c0-12.31-2.83-18.05-7.4-22.72C81.19,86.77,94.78,97.82,92.97,117.82z"/>
		<linearGradient id="SVGID_23_" gradientUnits="userSpaceOnUse" x1="108.7263" y1="136.9624" x2="84.001" y2="182.0496">
			<stop  offset="0" style="stop-color:#00004A"/>
			<stop  offset="1" style="stop-color:#CD013E"/>
		</linearGradient>
		<path class="st22" d="M95.02,219.72c-7.72-2.67-35.32-15.84-23.68-64.81c0.86-4.18,1.64-8.11,2.35-11.81l14.52,18.22
			c-3.28,23.19-5.86,44.51,1.14,55.79C91.62,218.4,93.61,219.22,95.02,219.72z"/>
		<linearGradient id="SVGID_24_" gradientUnits="userSpaceOnUse" x1="65.0919" y1="113.0338" x2="40.3666" y2="158.1211">
			<stop  offset="0" style="stop-color:#00004A"/>
			<stop  offset="1" style="stop-color:#CD013E"/>
		</linearGradient>
		<path class="st23" d="M57.2,179.07c-10.64-6-27.33-22.11-17.82-62.14c1-4.83,1.88-9.33,2.66-13.5l14.29,17.92
			C52.93,145.28,50,167.48,57.2,179.07z"/>
		<linearGradient id="SVGID_25_" gradientUnits="userSpaceOnUse" x1="40.8803" y1="-1.6458" x2="63.6663" y2="192.0356">
			<stop  offset="0" style="stop-color:#054582"/>
			<stop  offset="1" style="stop-color:#00011A"/>
		</linearGradient>
		<path class="st24" d="M60.83,79.78c-0.41,13.29-2.53,27.72-4.5,41.57l-14.29-17.92v-0.01c7.73-41.53,4.82-52.21-3.15-60.11
			C48.97,48.67,62.64,59.73,60.83,79.78z"/>
		<linearGradient id="SVGID_26_" gradientUnits="userSpaceOnUse" x1="48.1744" y1="43.6073" x2="55.2041" y2="174.021">
			<stop  offset="0" style="stop-color:#EEEBE9"/>
			<stop  offset="0" style="stop-color:#E7E3E0"/>
			<stop  offset="0.0375" style="stop-color:#D8D5D3"/>
			<stop  offset="0.1095" style="stop-color:#B1B1AF"/>
			<stop  offset="0.2078" style="stop-color:#737777"/>
			<stop  offset="0.264" style="stop-color:#4C5354"/>
			<stop  offset="0.2677" style="stop-color:#4E5556"/>
			<stop  offset="0.3751" style="stop-color:#909495"/>
			<stop  offset="0.4654" style="stop-color:#C0C2C3"/>
			<stop  offset="0.5341" style="stop-color:#DEDEDF"/>
			<stop  offset="0.573" style="stop-color:#E9E9EA"/>
			<stop  offset="0.6348" style="stop-color:#DFE0E1"/>
			<stop  offset="0.7388" style="stop-color:#C5C7CA"/>
			<stop  offset="0.8715" style="stop-color:#9BA0A5"/>
			<stop  offset="0.8764" style="stop-color:#999EA3"/>
			<stop  offset="1" style="stop-color:#DADADA"/>
			<stop  offset="1" style="stop-color:#B2B2B2"/>
		</linearGradient>
		<path class="st25" d="M64.98,182.32C64.98,182.32,64.98,182.32,64.98,182.32c-0.02,0.01-0.06-0.01-0.14-0.03
			c-0.04-0.01-0.08-0.02-0.12-0.03c-0.04-0.01-0.08-0.02-0.12-0.04c-0.24-0.06-0.58-0.16-1-0.3c-0.09-0.03-0.19-0.06-0.3-0.09
			c-0.06-0.02-0.11-0.04-0.17-0.06c-0.11-0.04-0.24-0.09-0.36-0.13c-0.01-0.01-0.01-0.01-0.01-0.01c-0.12-0.05-0.25-0.09-0.38-0.14
			c-0.14-0.05-0.27-0.1-0.42-0.16c-0.31-0.12-0.64-0.25-0.99-0.41c-0.11-0.05-0.22-0.09-0.33-0.15c-0.69-0.3-1.44-0.65-2.23-1.06
			c-0.38-0.2-0.78-0.41-1.18-0.64c-0.01-0.01-0.02-0.01-0.03-0.02c-11.36-18.3,2.52-63.03,3.63-99.29
			c1.81-20.05-11.86-31.11-21.94-36.47c0-0.01-0.01-0.01-0.01-0.01c-0.08-0.08-0.16-0.16-0.24-0.24c-0.15-0.15-0.3-0.29-0.45-0.43
			c-0.47-0.45-0.96-0.88-1.46-1.32c-0.25-0.22-0.51-0.45-0.78-0.67c-0.21-0.19-0.43-0.37-0.66-0.55c-0.83-0.69-1.7-1.39-2.6-2.12
			c0.01,0.01,0.01,0.01,0.02,0.01c0.02,0.01,0.03,0.02,0.05,0.02c1.59,0.44,33.02,9.61,32.21,38.21c-0.01,0.22-0.02,0.44-0.03,0.67
			c-0.01,0.24-0.02,0.49-0.04,0.74c-0.03,0.35-0.05,0.7-0.08,1.06c-1.21,39.53-17.59,89.12,0.07,103.57
			c0.03,0.02,0.04,0.04,0.06,0.05C64.97,182.31,64.97,182.31,64.98,182.32z"/>
		<linearGradient id="SVGID_27_" gradientUnits="userSpaceOnUse" x1="79.3876" y1="79.6188" x2="93.6894" y2="203.73">
			<stop  offset="0" style="stop-color:#EEEBE9"/>
			<stop  offset="0" style="stop-color:#E7E3E0"/>
			<stop  offset="0.0375" style="stop-color:#D8D5D3"/>
			<stop  offset="0.1095" style="stop-color:#B1B1AF"/>
			<stop  offset="0.2078" style="stop-color:#737777"/>
			<stop  offset="0.264" style="stop-color:#4C5354"/>
			<stop  offset="0.2677" style="stop-color:#4E5556"/>
			<stop  offset="0.3751" style="stop-color:#909495"/>
			<stop  offset="0.4654" style="stop-color:#C0C2C3"/>
			<stop  offset="0.5341" style="stop-color:#DEDEDF"/>
			<stop  offset="0.573" style="stop-color:#E9E9EA"/>
			<stop  offset="0.6348" style="stop-color:#DFE0E1"/>
			<stop  offset="0.7388" style="stop-color:#C5C7CA"/>
			<stop  offset="0.8715" style="stop-color:#9BA0A5"/>
			<stop  offset="0.8764" style="stop-color:#999EA3"/>
			<stop  offset="1" style="stop-color:#DADADA"/>
			<stop  offset="1" style="stop-color:#B2B2B2"/>
		</linearGradient>
		<path class="st26" d="M96.96,220.31c0,0-0.21-0.05-0.59-0.16c-0.1-0.03-0.21-0.06-0.33-0.09c-0.07-0.02-0.14-0.04-0.21-0.07
			c-0.08-0.03-0.16-0.05-0.24-0.08c-1.4-0.46-3.64-1.33-6.24-2.8c-11.36-18.3,2.52-63.03,3.63-99.29
			c1.8-19.99-11.79-31.05-21.85-36.43c-1.78-1.83-3.84-3.49-6.09-5.31c0.03,0.01,0.07,0.02,0.1,0.03c0.16,0.04,0.37,0.11,0.64,0.2
			c0.32,0.1,0.71,0.23,1.15,0.38c0.03,0.01,0.06,0.02,0.08,0.03c7.79,2.77,32.15,13.59,29.77,39.94
			c-1.21,39.53-17.59,89.12,0.08,103.57c0.02,0.02,0.04,0.03,0.06,0.05c0.01,0.01,0.02,0.01,0.02,0.02
			C96.94,220.3,96.95,220.3,96.96,220.31L96.96,220.31z"/>
	</g>
	<linearGradient id="SVGID_28_" gradientUnits="userSpaceOnUse" x1="23.5903" y1="90.2749" x2="-1.135" y2="135.3621">
		<stop  offset="0" style="stop-color:#00004A"/>
		<stop  offset="1" style="stop-color:#CD013E"/>
	</linearGradient>
	<path class="st27" d="M24.5,141.09c-10.64-6-27.33-22.11-17.83-62.14c1.2-5.79,2.24-11.1,3.12-15.96L23.99,80.8
		C20.45,105.7,17.04,129.08,24.5,141.09z"/>
</g>
</svg>
